<svg version="1.1" id="Layer_1" xmlns="http://www.w3.org/2000/svg" xmlns:xlink="http://www.w3.org/1999/xlink" x="0px" y="0px"
	 width="100%" height="50" viewBox="0 0 500 117" enable-background="new 0 0 500 117" xml:space="preserve">
<path fill="#010101" opacity="1.000000" stroke="none" 
	d="
M472.000000,118.000000 
	C314.666687,118.000000 157.833374,118.000000 1.000042,118.000000 
	C1.000028,79.000023 1.000028,40.000046 1.000014,1.000053 
	C167.666626,1.000035 334.333252,1.000035 500.999908,1.000018 
	C500.999939,39.999950 500.999939,78.999901 500.999969,117.999924 
	C491.500000,118.000000 482.000000,118.000000 472.000000,118.000000 
M340.799927,79.318726 
	C340.327942,79.169319 339.847595,79.040161 339.391571,78.852058 
	C339.308380,78.817726 339.324310,78.543022 339.246857,78.117790 
	C341.058807,77.643875 342.897064,77.163063 345.856415,76.389030 
	C332.594360,74.700844 329.082184,72.428116 327.995514,65.495781 
	C326.906219,58.547077 329.016235,52.276371 333.868256,50.357063 
	C336.451843,49.335064 339.863983,49.004410 342.459808,49.801762 
	C345.184631,50.638733 347.380615,53.197464 349.690521,54.916550 
	C351.175964,50.070763 348.689087,47.687290 343.834808,47.593922 
	C339.570587,47.511898 335.093353,47.293747 331.073639,48.426025 
	C325.518311,49.990856 321.630615,53.925179 320.891388,60.106129 
	C320.183716,66.023453 321.797150,71.119583 327.017731,74.366913 
	C330.949402,76.812523 335.199493,78.746201 339.339142,81.735909 
	C338.663269,82.086922 337.898926,82.849800 337.324982,82.726471 
	C330.034149,81.159882 322.754150,79.531693 315.521667,77.718803 
	C314.647095,77.499588 313.457733,76.117889 313.443390,75.257782 
	C313.291901,66.190109 313.349640,57.118946 313.349640,48.087715 
	C311.419128,48.087715 308.549011,48.087715 307.064026,48.087715 
	C306.319397,57.923237 308.304657,67.420578 305.782471,76.761818 
	C308.602631,77.869331 311.860443,79.081978 315.064606,80.422729 
	C319.798950,82.403770 324.365051,84.900070 329.242340,86.396095 
	C334.683411,88.065048 340.013702,87.484825 343.828644,82.864189 
	C342.878357,81.749596 342.079651,80.812790 340.799927,79.318726 
M435.378082,51.103622 
	C441.863739,46.030281 449.092499,50.489330 450.007507,58.400654 
	C450.309418,61.011124 450.308136,63.746056 449.885132,66.332420 
	C448.998596,71.752220 444.808197,75.457565 439.778961,75.741676 
	C434.928864,76.015671 430.673645,72.994255 429.033997,67.767014 
	C426.908875,60.991917 427.691956,54.494907 431.956635,47.939014 
	C425.782440,49.772137 422.316071,53.493469 421.242645,59.061825 
	C420.091400,65.033592 421.671875,70.397354 426.901611,73.994240 
	C433.427551,78.482643 440.587250,78.798203 447.821411,76.048073 
	C455.324799,73.195564 458.920837,66.103401 456.969421,58.331429 
	C455.494751,52.458324 451.456085,48.868713 445.741150,47.511734 
	C441.711365,46.554882 437.429810,46.112743 435.007355,51.003975 
	C434.695892,51.338100 434.384430,51.672226 434.072968,52.006344 
	C434.321411,51.509007 434.569885,51.011669 435.378082,51.103622 
M204.378174,51.103664 
	C210.861221,46.031166 218.091858,50.486649 219.007477,58.400673 
	C219.309509,61.011116 219.308136,63.746067 218.885086,66.332420 
	C217.998596,71.752251 213.808228,75.457565 208.778976,75.741676 
	C203.928879,76.015671 199.673630,72.994293 198.034027,67.767021 
	C195.908936,60.991943 196.691879,54.494926 200.956696,47.939003 
	C194.782455,49.772156 191.316132,53.493458 190.242645,59.061802 
	C189.091400,65.033592 190.671890,70.397339 195.901581,73.994240 
	C202.427490,78.482658 209.587189,78.798203 216.821350,76.048096 
	C224.324738,73.195633 227.920761,66.103561 225.969406,58.331516 
	C224.494827,52.458351 220.456116,48.868782 214.741257,47.511768 
	C210.711517,46.554901 206.429916,46.112595 204.007370,51.004017 
	C203.695877,51.338089 203.384384,51.672165 203.072906,52.006248 
	C203.321442,51.508926 203.569962,51.011608 204.378174,51.103664 
M170.851196,80.803299 
	C172.173157,80.923294 173.494843,81.142853 174.817108,81.146210 
	C180.813110,81.161400 185.583878,78.117180 186.958923,73.471329 
	C188.373260,68.692848 186.488647,64.790039 180.950851,61.080612 
	C178.470718,59.419319 175.803284,57.982738 173.555130,56.054447 
	C172.519913,55.166519 171.544144,53.107578 171.891205,52.004169 
	C172.276855,50.778107 174.287231,49.157207 175.436691,49.270206 
	C177.670944,49.489864 179.807602,50.777832 181.958572,51.685173 
	C182.271164,51.817032 182.439575,52.290672 182.793213,52.765160 
	C182.793213,51.059074 182.793213,49.634720 182.793213,48.277451 
	C180.481735,47.841679 178.419785,47.222790 176.329987,47.107124 
	C172.045044,46.869957 168.384766,48.041382 166.832565,52.608807 
	C165.343414,56.990646 167.369873,59.926937 170.878418,62.264717 
	C173.500275,64.011688 176.561417,65.435623 178.494141,67.774292 
	C180.042542,69.647911 181.273788,73.019180 180.625793,75.095306 
	C180.072083,76.869301 176.672333,78.709610 174.485550,78.766853 
	C172.001266,78.831894 169.166580,77.357872 167.033875,75.800293 
	C164.730804,74.118309 164.093796,74.288338 163.328644,76.914871 
	C159.779846,72.596504 156.231033,68.278137 152.531418,63.776257 
	C157.256638,61.968029 159.934128,58.780983 158.724808,53.805500 
	C157.527420,48.879059 153.326950,47.912163 148.952469,47.805264 
	C144.523697,47.697041 140.090210,47.781395 135.565765,47.781395 
	C137.782486,52.181767 137.584686,73.354347 135.311661,76.878288 
	C138.697403,76.878288 142.003006,76.878288 143.851273,76.878288 
	C143.807327,72.217186 143.764252,67.649216 144.187775,63.118828 
	C144.499832,63.097622 144.808136,63.051418 145.664124,63.359764 
	C149.147980,68.408218 152.426941,73.614441 156.164078,78.467880 
	C161.662827,85.609131 169.644501,87.637039 175.809631,84.213097 
	C173.999435,83.176430 171.974564,82.016815 170.851196,80.803299 
M47.396435,76.512611 
	C43.621983,72.451385 39.847530,68.390160 35.755951,63.987720 
	C40.803318,61.980091 43.554092,58.669609 42.051926,53.472198 
	C40.554077,48.289703 36.007969,47.861858 31.559748,47.759132 
	C27.460865,47.664471 23.358074,47.738991 20.046801,47.738991 
	C20.615328,57.753506 21.068634,67.276222 19.824821,76.859650 
	C22.108288,76.859650 25.413115,76.859650 28.717939,76.859650 
	C28.154161,76.832420 27.590384,76.805183 27.026606,76.777954 
	C26.907497,67.842621 26.982927,58.897972 26.986954,49.967876 
	C31.252623,49.406673 34.646141,49.876148 35.463806,54.432026 
	C36.372543,59.495331 33.604736,61.970753 28.474094,62.406681 
	C32.514549,68.211281 35.987865,73.706421 39.972282,78.801910 
	C45.392094,85.733063 53.306187,87.593597 59.557808,84.076706 
	C56.828377,82.948196 53.762249,82.076042 51.162048,80.456047 
	C49.618725,79.494522 48.809738,77.354340 48.442383,76.463165 
	C56.222435,76.463165 64.002487,76.463165 72.206184,76.463165 
	C72.452393,75.101151 72.765755,73.367577 73.079124,71.634003 
	C68.300179,77.033012 62.653297,74.619652 57.532692,74.989006 
	C57.532692,70.932419 57.532692,67.498222 57.532692,63.481655 
	C60.801750,63.710949 63.769753,63.919125 66.800598,64.131714 
	C66.800598,63.407158 66.800598,62.343884 66.800598,61.242737 
	C63.549454,61.242737 60.510674,61.242737 57.575745,61.242737 
	C57.575745,57.222095 57.575745,53.639938 57.575745,49.025837 
	C60.394627,50.191429 62.579838,51.094997 64.705574,51.973980 
	C64.646767,50.674652 64.573975,49.066452 64.509682,47.646145 
	C59.411331,47.646145 54.650642,47.646145 50.861534,47.646145 
	C50.861534,56.704014 50.924171,65.364594 50.725414,74.019165 
	C50.711666,74.617882 48.751068,75.171890 47.396435,76.512611 
M389.995514,68.311234 
	C389.754669,71.144653 389.513824,73.978065 389.264374,76.912682 
	C393.761475,76.912682 399.268555,77.192024 404.735229,76.841187 
	C411.402405,76.413315 416.283447,72.129845 417.680573,66.195702 
	C419.179047,59.831028 417.048859,53.301537 411.856934,50.406582 
	C403.889618,45.964108 395.389954,47.791229 387.668945,48.244717 
	C388.651825,50.615883 389.803558,52.207741 389.903046,53.862873 
	C390.172638,58.346539 389.995483,62.857056 389.995514,68.311234 
M305.666351,85.957138 
	C307.006042,85.897682 308.345734,85.838234 309.685455,85.778778 
	C302.711792,81.920547 300.208008,75.346512 297.558411,68.867119 
	C295.484070,63.794407 293.532227,58.662079 291.222778,53.697281 
	C287.782867,46.302406 285.564819,45.258495 277.416809,46.462337 
	C283.886536,48.837055 285.662506,52.846130 282.386536,57.973564 
	C280.177277,61.431477 279.023773,65.551735 277.262512,69.312233 
	C276.045685,71.910301 274.597473,74.400009 273.369965,76.716713 
	C274.868561,76.716713 277.073456,76.716713 279.278351,76.716713 
	C278.832153,76.410835 278.385956,76.104958 277.939758,75.799072 
	C279.128265,73.516739 279.750732,70.335625 281.630890,69.151466 
	C284.885681,67.101547 290.478546,69.155075 291.622406,72.002380 
	C294.196106,78.408775 297.720490,83.863914 305.666351,85.957138 
M386.868561,85.882698 
	C388.429688,85.882698 389.990784,85.882698 391.551910,85.882698 
	C384.114655,81.777122 381.596466,74.544373 378.763214,67.490166 
	C376.726196,62.418419 374.741699,57.301006 372.293030,52.425293 
	C369.063965,45.995602 366.693817,45.104263 360.982269,46.295532 
	C362.413940,48.474995 366.153442,51.782944 365.535065,53.638924 
	C362.850677,61.695873 358.895325,69.329369 355.442780,77.025795 
	C355.959137,77.025795 357.117096,77.025795 358.275055,77.025795 
	C359.096893,77.025795 359.918701,77.025795 359.253845,77.025795 
	C360.829651,73.810844 361.404480,70.367195 363.368011,69.133255 
	C366.817657,66.965378 372.219940,69.226257 373.553467,72.456100 
	C376.044617,78.489677 379.455109,83.623566 386.868561,85.882698 
M113.731003,47.716724 
	C111.773964,47.716724 109.816933,47.716724 108.809372,47.716724 
	C108.703583,57.702656 109.848366,67.291092 107.977715,76.841461 
	C114.958504,76.841461 122.411827,76.841461 130.134628,76.841461 
	C130.511169,74.987480 130.862122,73.259483 130.942429,72.864075 
	C125.977135,73.824883 120.892883,74.808708 115.590149,75.834808 
	C115.590149,71.082855 115.590149,67.529778 115.590149,63.437286 
	C118.906395,63.696632 121.864182,63.927944 124.730438,64.152100 
	C124.730438,63.312691 124.730438,62.266636 124.730438,61.365425 
	C121.540550,61.365425 118.632919,61.365425 115.498001,61.365425 
	C115.498001,57.477486 115.498001,53.898724 115.498001,49.196251 
	C118.239204,50.217770 120.506500,51.062683 122.360001,51.753399 
	C122.360001,50.535480 122.360001,48.960583 122.360001,47.362648 
	C119.579216,47.490063 117.107956,47.603298 113.731003,47.716724 
M91.287338,73.728432 
	C96.276909,62.915092 101.266487,52.101753 106.256065,41.288414 
	C105.774826,41.041378 105.293594,40.794338 104.812355,40.547298 
	C97.888107,47.911526 96.505478,58.409065 91.051575,67.522705 
	C88.339211,60.599499 85.902496,54.379868 83.435699,48.083458 
	C81.092453,48.083458 77.898636,48.083458 75.343346,48.083458 
	C80.022911,57.958809 84.678131,67.782806 89.489731,77.936798 
	C90.109467,76.514168 90.569756,75.457542 91.287338,73.728432 
M483.698303,69.772110 
	C481.739349,67.014526 480.084229,63.954346 477.729980,61.590420 
	C475.665619,59.517544 472.596893,58.470325 470.400208,56.493916 
	C469.159637,55.377728 467.787292,52.857773 468.271301,51.768780 
	C468.872009,50.417252 471.314606,49.227707 472.992371,49.185326 
	C474.894501,49.137272 476.830658,50.436527 478.848846,51.185966 
	C479.012115,50.492092 479.320862,49.180317 479.701721,47.561935 
	C476.593048,47.387535 473.787628,47.047222 470.992584,47.118038 
	C467.202362,47.214077 464.160339,48.822803 463.039581,52.701626 
	C461.951355,56.467617 463.124695,59.576569 466.435730,61.802273 
	C468.917816,63.470715 471.424011,65.106659 473.853424,66.849136 
	C476.565857,68.794601 478.633057,71.169334 477.292114,74.809998 
	C475.888702,78.620338 472.641144,79.347084 469.130981,78.920776 
	C467.137543,78.678665 465.222229,77.792969 463.271698,77.197121 
	C466.258026,81.822227 470.708832,81.675308 474.986725,80.707489 
	C480.178101,79.533012 483.275146,76.031662 483.698303,69.772110 
M265.962036,48.535637 
	C261.224213,48.247108 256.409058,47.292400 251.767273,47.831306 
	C245.331787,48.578457 240.713470,52.548058 239.282883,59.063557 
	C238.026993,64.783485 239.505234,69.955406 244.319214,73.783508 
	C249.192886,77.659103 257.307007,78.758812 262.504364,76.266418 
	C250.830582,74.700958 247.323166,72.337585 246.124298,65.229073 
	C245.010696,58.626160 247.386292,52.095570 252.317719,50.254833 
	C254.918274,49.284134 258.316132,49.040470 260.913086,49.862091 
	C263.553528,50.697468 265.652069,53.245590 268.683777,55.579338 
	C267.928925,52.991131 267.327911,50.930386 265.962036,48.535637 
z"/>
<path fill="#F2F2F2" opacity="1.000000" stroke="none" 
	d="
M47.670574,75.744110 
	C48.809738,77.354340 49.618725,79.494522 51.162048,80.456047 
	C53.762249,82.076042 56.828377,82.948196 59.557808,84.076706 
	C53.306187,87.593597 45.392094,85.733063 39.972282,78.801910 
	C35.987865,73.706421 32.514549,68.211281 28.474094,62.406681 
	C33.604736,61.970753 36.372543,59.495331 35.463806,54.432026 
	C34.646141,49.876148 31.252623,49.406673 26.986954,49.967876 
	C26.982927,58.897972 26.907497,67.842621 27.026606,76.777954 
	C27.590384,76.805183 28.154161,76.832420 28.717939,76.859650 
	C25.413115,76.859650 22.108288,76.859650 19.824821,76.859650 
	C21.068634,67.276222 20.615328,57.753506 20.046801,47.738991 
	C23.358074,47.738991 27.460865,47.664471 31.559748,47.759132 
	C36.007969,47.861858 40.554077,48.289703 42.051926,53.472198 
	C43.554092,58.669609 40.803318,61.980091 35.755951,63.987720 
	C39.847530,68.390160 43.621983,72.451385 47.546600,76.156815 
	C47.696762,75.801025 47.670574,75.744110 47.670574,75.744110 
z"/>
<path fill="#F3F3F3" opacity="1.000000" stroke="none" 
	d="
M143.721176,63.081249 
	C143.764252,67.649216 143.807327,72.217186 143.851273,76.878288 
	C142.003006,76.878288 138.697403,76.878288 135.311661,76.878288 
	C137.584686,73.354347 137.782486,52.181767 135.565765,47.781395 
	C140.090210,47.781395 144.523697,47.697041 148.952469,47.805264 
	C153.326950,47.912163 157.527420,48.879059 158.724808,53.805500 
	C159.934128,58.780983 157.256638,61.968029 152.531418,63.776257 
	C156.231033,68.278137 159.779846,72.596504 163.706619,77.329170 
	C165.417419,78.504906 166.750229,79.266342 168.202698,80.383972 
	C168.906693,80.837936 169.491043,80.935707 170.058578,80.978996 
	C170.041748,80.924515 169.949692,80.857201 169.949692,80.857208 
	C171.974564,82.016815 173.999435,83.176430 175.809631,84.213097 
	C169.644501,87.637039 161.662827,85.609131 156.164078,78.467880 
	C152.426941,73.614441 149.147980,68.408218 145.557037,62.846447 
	C151.008102,61.217133 153.165680,58.635399 151.989609,54.082775 
	C150.798370,49.471436 147.435059,49.228767 143.721176,49.999866 
	C143.721176,54.609100 143.721176,58.845173 143.721176,63.081249 
z"/>
<path fill="#F0F0F0" opacity="1.000000" stroke="none" 
	d="
M203.713776,50.563343 
	C206.429916,46.112595 210.711517,46.554901 214.741257,47.511768 
	C220.456116,48.868782 224.494827,52.458351 225.969406,58.331516 
	C227.920761,66.103561 224.324738,73.195633 216.821350,76.048096 
	C209.587189,78.798203 202.427490,78.482658 195.901581,73.994240 
	C190.671890,70.397339 189.091400,65.033592 190.242645,59.061802 
	C191.316132,53.493458 194.782455,49.772156 200.956696,47.939003 
	C196.691879,54.494926 195.908936,60.991943 198.034027,67.767021 
	C199.673630,72.994293 203.928879,76.015671 208.778976,75.741676 
	C213.808228,75.457565 217.998596,71.752251 218.885086,66.332420 
	C219.308136,63.746067 219.309509,61.011116 219.007477,58.400673 
	C218.091858,50.486649 210.861221,46.031166 204.088257,50.855595 
	C203.798325,50.607525 203.713776,50.563343 203.713776,50.563343 
z"/>
<path fill="#F0F0F0" opacity="1.000000" stroke="none" 
	d="
M434.713654,50.563389 
	C437.429810,46.112743 441.711365,46.554882 445.741150,47.511734 
	C451.456085,48.868713 455.494751,52.458324 456.969421,58.331429 
	C458.920837,66.103401 455.324799,73.195564 447.821411,76.048073 
	C440.587250,78.798203 433.427551,78.482643 426.901611,73.994240 
	C421.671875,70.397354 420.091400,65.033592 421.242645,59.061825 
	C422.316071,53.493469 425.782440,49.772137 431.956635,47.939014 
	C427.691956,54.494907 426.908875,60.991917 429.033997,67.767014 
	C430.673645,72.994255 434.928864,76.015671 439.778961,75.741676 
	C444.808197,75.457565 448.998596,71.752220 449.885132,66.332420 
	C450.308136,63.746056 450.309418,61.011124 450.007507,58.400654 
	C449.092499,50.489330 441.863739,46.030281 435.088135,50.855591 
	C434.798187,50.607555 434.713654,50.563389 434.713654,50.563389 
z"/>
<path fill="#F6F6F6" opacity="1.000000" stroke="none" 
	d="
M389.995514,67.834076 
	C389.995483,62.857056 390.172638,58.346539 389.903046,53.862873 
	C389.803558,52.207741 388.651825,50.615883 387.668945,48.244717 
	C395.389954,47.791229 403.889618,45.964108 411.856934,50.406582 
	C417.048859,53.301537 419.179047,59.831028 417.680573,66.195702 
	C416.283447,72.129845 411.402405,76.413315 404.735229,76.841187 
	C399.268555,77.192024 393.761475,76.912682 389.264374,76.912682 
	C389.513824,73.978065 389.754669,71.144653 389.995514,67.834076 
M400.355591,49.709988 
	C398.999878,50.407036 396.494019,51.060818 396.465942,51.807800 
	C396.176727,59.496357 396.288483,67.199997 396.288483,74.825577 
	C406.117645,75.595604 410.087738,72.810303 410.978394,65.058060 
	C412.022186,55.972565 408.651825,50.659588 400.355591,49.709988 
z"/>
<path fill="#EFEFEF" opacity="1.000000" stroke="none" 
	d="
M305.278015,85.902954 
	C297.720490,83.863914 294.196106,78.408775 291.622406,72.002380 
	C290.478546,69.155075 284.885681,67.101547 281.630890,69.151466 
	C279.750732,70.335625 279.128265,73.516739 277.939758,75.799072 
	C278.385956,76.104958 278.832153,76.410835 279.278351,76.716713 
	C277.073456,76.716713 274.868561,76.716713 273.369965,76.716713 
	C274.597473,74.400009 276.045685,71.910301 277.262512,69.312233 
	C279.023773,65.551735 280.177277,61.431477 282.386536,57.973564 
	C285.662506,52.846130 283.886536,48.837055 277.416809,46.462337 
	C285.564819,45.258495 287.782867,46.302406 291.222778,53.697281 
	C293.532227,58.662079 295.484070,63.794407 297.558411,68.867119 
	C300.208008,75.346512 302.711792,81.920547 309.685455,85.778778 
	C308.345734,85.838234 307.006042,85.897682 305.278015,85.902954 
M283.286499,62.049644 
	C282.764435,63.543987 282.242371,65.038330 281.638306,66.767395 
	C284.444916,66.767395 286.722778,66.767395 289.668335,66.767395 
	C288.373688,63.304146 287.211090,60.194145 285.760437,56.313583 
	C284.802673,58.636856 284.239349,60.003323 283.286499,62.049644 
z"/>
<path fill="#F0F0F0" opacity="1.000000" stroke="none" 
	d="
M386.484314,85.797318 
	C379.455109,83.623566 376.044617,78.489677 373.553467,72.456100 
	C372.219940,69.226257 366.817657,66.965378 363.368011,69.133255 
	C361.404480,70.367195 360.829651,73.810844 359.253845,77.025795 
	C359.918701,77.025795 359.096893,77.025795 358.275055,77.025795 
	C357.117096,77.025795 355.959137,77.025795 355.442780,77.025795 
	C358.895325,69.329369 362.850677,61.695873 365.535065,53.638924 
	C366.153442,51.782944 362.413940,48.474995 360.982269,46.295532 
	C366.693817,45.104263 369.063965,45.995602 372.293030,52.425293 
	C374.741699,57.301006 376.726196,62.418419 378.763214,67.490166 
	C381.596466,74.544373 384.114655,81.777122 391.551910,85.882698 
	C389.990784,85.882698 388.429688,85.882698 386.484314,85.797318 
M370.865814,65.031563 
	C369.823608,62.412487 368.781433,59.793407 367.427124,56.389938 
	C365.853912,60.317467 364.641022,63.345421 362.995575,67.453339 
	C366.307007,66.792809 368.656067,66.324242 370.865814,65.031563 
z"/>
<path fill="#F5F5F5" opacity="1.000000" stroke="none" 
	d="
M341.280945,79.875999 
	C342.079651,80.812790 342.878357,81.749596 343.828644,82.864189 
	C340.013702,87.484825 334.683411,88.065048 329.242340,86.396095 
	C324.365051,84.900070 319.798950,82.403770 315.064606,80.422729 
	C311.860443,79.081978 308.602631,77.869331 305.782471,76.761818 
	C308.304657,67.420578 306.319397,57.923237 307.064026,48.087715 
	C308.549011,48.087715 311.419128,48.087715 313.349640,48.087715 
	C313.349640,57.118946 313.291901,66.190109 313.443390,75.257782 
	C313.457733,76.117889 314.647095,77.499588 315.521667,77.718803 
	C322.754150,79.531693 330.034149,81.159882 337.324982,82.726471 
	C337.898926,82.849800 338.663269,82.086922 339.572144,81.195465 
	C340.297089,80.395363 340.789001,80.135696 341.280945,79.875999 
z"/>
<path fill="#EFEFEF" opacity="1.000000" stroke="none" 
	d="
M168.083054,80.027779 
	C166.750229,79.266342 165.417419,78.504906 164.046341,77.384827 
	C164.093796,74.288338 164.730804,74.118309 167.033875,75.800293 
	C169.166580,77.357872 172.001266,78.831894 174.485550,78.766853 
	C176.672333,78.709610 180.072083,76.869301 180.625793,75.095306 
	C181.273788,73.019180 180.042542,69.647911 178.494141,67.774292 
	C176.561417,65.435623 173.500275,64.011688 170.878418,62.264717 
	C167.369873,59.926937 165.343414,56.990646 166.832565,52.608807 
	C168.384766,48.041382 172.045044,46.869957 176.329987,47.107124 
	C178.419785,47.222790 180.481735,47.841679 182.793213,48.277451 
	C182.793213,49.634720 182.793213,51.059074 182.793213,52.765160 
	C182.439575,52.290672 182.271164,51.817032 181.958572,51.685173 
	C179.807602,50.777832 177.670944,49.489864 175.436691,49.270206 
	C174.287231,49.157207 172.276855,50.778107 171.891205,52.004169 
	C171.544144,53.107578 172.519913,55.166519 173.555130,56.054447 
	C175.803284,57.982738 178.470718,59.419319 180.950851,61.080612 
	C186.488647,64.790039 188.373260,68.692848 186.958923,73.471329 
	C185.583878,78.117180 180.813110,81.161400 174.817108,81.146210 
	C173.494843,81.142853 172.173157,80.923294 170.400452,80.830246 
	C169.949692,80.857201 170.041748,80.924515 169.997894,80.661354 
	C169.330383,80.274719 168.706726,80.151253 168.083054,80.027779 
z"/>
<path fill="#F1F1F1" opacity="1.000000" stroke="none" 
	d="
M114.183853,47.716629 
	C117.107956,47.603298 119.579216,47.490063 122.360001,47.362648 
	C122.360001,48.960583 122.360001,50.535480 122.360001,51.753399 
	C120.506500,51.062683 118.239204,50.217770 115.498001,49.196251 
	C115.498001,53.898724 115.498001,57.477486 115.498001,61.365425 
	C118.632919,61.365425 121.540550,61.365425 124.730438,61.365425 
	C124.730438,62.266636 124.730438,63.312691 124.730438,64.152100 
	C121.864182,63.927944 118.906395,63.696632 115.590149,63.437286 
	C115.590149,67.529778 115.590149,71.082855 115.590149,75.834808 
	C120.892883,74.808708 125.977135,73.824883 130.942429,72.864075 
	C130.862122,73.259483 130.511169,74.987480 130.134628,76.841461 
	C122.411827,76.841461 114.958504,76.841461 107.977715,76.841461 
	C109.848366,67.291092 108.703583,57.702656 108.809372,47.716724 
	C109.816933,47.716724 111.773964,47.716724 114.183853,47.716629 
z"/>
<path fill="#F1F1F1" opacity="1.000000" stroke="none" 
	d="
M48.056480,76.103638 
	C47.670574,75.744110 47.696762,75.801025 47.696301,75.773857 
	C48.751068,75.171890 50.711666,74.617882 50.725414,74.019165 
	C50.924171,65.364594 50.861534,56.704014 50.861534,47.646145 
	C54.650642,47.646145 59.411331,47.646145 64.509682,47.646145 
	C64.573975,49.066452 64.646767,50.674652 64.705574,51.973980 
	C62.579838,51.094997 60.394627,50.191429 57.575745,49.025837 
	C57.575745,53.639938 57.575745,57.222095 57.575745,61.242737 
	C60.510674,61.242737 63.549454,61.242737 66.800598,61.242737 
	C66.800598,62.343884 66.800598,63.407158 66.800598,64.131714 
	C63.769753,63.919125 60.801750,63.710949 57.532692,63.481655 
	C57.532692,67.498222 57.532692,70.932419 57.532692,74.989006 
	C62.653297,74.619652 68.300179,77.033012 73.079124,71.634003 
	C72.765755,73.367577 72.452393,75.101151 72.206184,76.463165 
	C64.002487,76.463165 56.222435,76.463165 48.056480,76.103638 
z"/>
<path fill="#F0F0F0" opacity="1.000000" stroke="none" 
	d="
M91.158691,74.064682 
	C90.569756,75.457542 90.109467,76.514168 89.489731,77.936798 
	C84.678131,67.782806 80.022911,57.958809 75.343346,48.083458 
	C77.898636,48.083458 81.092453,48.083458 83.435699,48.083458 
	C85.902496,54.379868 88.339211,60.599499 91.051575,67.522705 
	C96.505478,58.409065 97.888107,47.911526 104.812355,40.547298 
	C105.293594,40.794338 105.774826,41.041378 106.256065,41.288414 
	C101.266487,52.101753 96.276909,62.915092 91.158691,74.064682 
z"/>
<path fill="#F0F0F0" opacity="1.000000" stroke="none" 
	d="
M483.726868,70.153214 
	C483.275146,76.031662 480.178101,79.533012 474.986725,80.707489 
	C470.708832,81.675308 466.258026,81.822227 463.271698,77.197121 
	C465.222229,77.792969 467.137543,78.678665 469.130981,78.920776 
	C472.641144,79.347084 475.888702,78.620338 477.292114,74.809998 
	C478.633057,71.169334 476.565857,68.794601 473.853424,66.849136 
	C471.424011,65.106659 468.917816,63.470715 466.435730,61.802273 
	C463.124695,59.576569 461.951355,56.467617 463.039581,52.701626 
	C464.160339,48.822803 467.202362,47.214077 470.992584,47.118038 
	C473.787628,47.047222 476.593048,47.387535 479.701721,47.561935 
	C479.320862,49.180317 479.012115,50.492092 478.848846,51.185966 
	C476.830658,50.436527 474.894501,49.137272 472.992371,49.185326 
	C471.314606,49.227707 468.872009,50.417252 468.271301,51.768780 
	C467.787292,52.857773 469.159637,55.377728 470.400208,56.493916 
	C472.596893,58.470325 475.665619,59.517544 477.729980,61.590420 
	C480.084229,63.954346 481.739349,67.014526 483.726868,70.153214 
z"/>
<path fill="#ECECEC" opacity="1.000000" stroke="none" 
	d="
M341.040405,79.597374 
	C340.789001,80.135696 340.297089,80.395363 339.556519,80.781387 
	C335.199493,78.746201 330.949402,76.812523 327.017731,74.366913 
	C321.797150,71.119583 320.183716,66.023453 320.891388,60.106129 
	C321.630615,53.925179 325.518311,49.990856 331.073639,48.426025 
	C335.093353,47.293747 339.570587,47.511898 343.834808,47.593922 
	C348.689087,47.687290 351.175964,50.070763 349.690521,54.916550 
	C347.380615,53.197464 345.184631,50.638733 342.459808,49.801762 
	C339.863983,49.004410 336.451843,49.335064 333.868256,50.357063 
	C329.016235,52.276371 326.906219,58.547077 327.995514,65.495781 
	C329.082184,72.428116 332.594360,74.700844 345.856415,76.389030 
	C342.897064,77.163063 341.058807,77.643875 339.246857,78.117790 
	C339.324310,78.543022 339.308380,78.817726 339.391571,78.852058 
	C339.847595,79.040161 340.327942,79.169319 341.040405,79.597374 
z"/>
<path fill="#ECECEC" opacity="1.000000" stroke="none" 
	d="
M266.344482,48.702637 
	C267.327911,50.930386 267.928925,52.991131 268.683777,55.579338 
	C265.652069,53.245590 263.553528,50.697468 260.913086,49.862091 
	C258.316132,49.040470 254.918274,49.284134 252.317719,50.254833 
	C247.386292,52.095570 245.010696,58.626160 246.124298,65.229073 
	C247.323166,72.337585 250.830582,74.700958 262.504364,76.266418 
	C257.307007,78.758812 249.192886,77.659103 244.319214,73.783508 
	C239.505234,69.955406 238.026993,64.783485 239.282883,59.063557 
	C240.713470,52.548058 245.331787,48.578457 251.767273,47.831306 
	C256.409058,47.292400 261.224213,48.247108 266.344482,48.702637 
z"/>
<path fill="#1D1D1D" opacity="1.000000" stroke="none" 
	d="
M143.954468,63.100037 
	C143.721176,58.845173 143.721176,54.609100 143.721176,49.999866 
	C147.435059,49.228767 150.798370,49.471436 151.989609,54.082775 
	C153.165680,58.635399 151.008102,61.217133 145.281311,62.656677 
	C144.808136,63.051418 144.499832,63.097622 143.954468,63.100037 
z"/>
<path fill="#F0F0F0" opacity="1.000000" stroke="none" 
	d="
M203.808411,50.560905 
	C203.569962,51.011608 203.321442,51.508926 203.072906,52.006241 
	C203.384384,51.672165 203.695877,51.338089 203.860565,50.783680 
	C203.713776,50.563343 203.798325,50.607525 203.808411,50.560905 
z"/>
<path fill="#F0F0F0" opacity="1.000000" stroke="none" 
	d="
M434.808258,50.560944 
	C434.569885,51.011669 434.321411,51.509007 434.072968,52.006348 
	C434.384430,51.672226 434.695892,51.338100 434.860504,50.783684 
	C434.713654,50.563389 434.798187,50.607555 434.808258,50.560944 
z"/>
<path fill="#010101" opacity="1.000000" stroke="none" 
	d="
M168.202698,80.383972 
	C168.706726,80.151253 169.330383,80.274719 170.014740,80.715836 
	C169.491043,80.935707 168.906693,80.837936 168.202698,80.383972 
z"/>
<path fill="#090909" opacity="1.000000" stroke="none" 
	d="
M400.800873,49.713226 
	C408.651825,50.659588 412.022186,55.972565 410.978394,65.058060 
	C410.087738,72.810303 406.117645,75.595604 396.288483,74.825577 
	C396.288483,67.199997 396.176727,59.496357 396.465942,51.807800 
	C396.494019,51.060818 398.999878,50.407036 400.800873,49.713226 
z"/>
<path fill="#151515" opacity="1.000000" stroke="none" 
	d="
M283.481262,61.709717 
	C284.239349,60.003323 284.802673,58.636856 285.760437,56.313583 
	C287.211090,60.194145 288.373688,63.304146 289.668335,66.767395 
	C286.722778,66.767395 284.444916,66.767395 281.638306,66.767395 
	C282.242371,65.038330 282.764435,63.543987 283.481262,61.709717 
z"/>
<path fill="#141414" opacity="1.000000" stroke="none" 
	d="
M370.935486,65.443619 
	C368.656067,66.324242 366.307007,66.792809 362.995575,67.453339 
	C364.641022,63.345421 365.853912,60.317467 367.427124,56.389938 
	C368.781433,59.793407 369.823608,62.412487 370.935486,65.443619 
z"/>
</svg>