<svg version="1.1" id="Layer_1" xmlns="http://www.w3.org/2000/svg" xmlns:xlink="http://www.w3.org/1999/xlink" x="0px" y="0px"
	 width="100%" height="50" viewBox="0 0 500 125" enable-background="new 0 0 500 125" xml:space="preserve">
<path fill="none" opacity="1.000000" stroke="#000000" stroke-linecap="round" stroke-linejoin="round" stroke-width="2.000000"
	d="
M191.500000,53.500000 
	C187.213638,59.275349 186.498489,65.755783 189.645615,71.925728 
	C192.771790,78.054665 198.724121,80.047363 205.500549,79.506798 
	C213.184799,78.893814 219.212097,71.488777 218.440643,63.005398 
	C217.828400,56.272644 212.270554,49.507195 203.991211,50.420376 
	C201.866364,50.654732 200.347488,51.872261 198.500000,52.500000 
"/>
<path fill="none" opacity="1.000000" stroke="#000000" stroke-linecap="round" stroke-linejoin="round" stroke-width="2.000000"
	d="
M421.500000,53.500000 
	C417.430115,57.709888 415.876953,66.236061 418.542877,71.478195 
	C420.944244,76.200157 425.775360,80.057343 434.001373,79.520889 
	C439.803284,79.142509 445.178772,75.351112 446.933258,69.480057 
	C448.669617,63.669685 447.789795,57.862030 443.392792,53.610889 
	C439.595367,49.939468 434.567322,49.361984 429.500000,51.500000 
"/>
<path fill="none" opacity="1.000000" stroke="#000000" stroke-linecap="round" stroke-linejoin="round" stroke-width="2.000000"
	d="
M261.500000,56.500000 
	C259.907806,52.065819 253.599808,49.079098 248.012650,50.548096 
	C239.405640,52.811081 235.834854,58.957188 236.520660,66.998238 
	C237.082672,73.587875 243.930496,79.259537 250.998001,79.548866 
	C256.358368,79.768311 260.552826,78.040627 263.500000,73.500000 
"/>
<path fill="none" opacity="1.000000" stroke="#000000" stroke-linecap="round" stroke-linejoin="round" stroke-width="3.000000"
	d="
M386.000000,52.000000 
	C386.000000,60.836472 386.000000,69.672943 386.000000,78.857964 
	C392.943817,78.697411 400.791016,80.851234 406.528900,73.522621 
	C409.953125,69.149071 409.214264,63.884785 408.150177,59.586601 
	C407.113953,55.400906 403.418182,51.860996 398.004608,51.440807 
	C391.097992,50.904724 384.254333,50.547207 377.500000,52.500000 
"/>
<path fill="none" opacity="1.000000" stroke="#000000" stroke-linecap="round" stroke-linejoin="round" stroke-width="2.000000"
	d="
M342.500000,56.500000 
	C340.907806,52.065819 334.624237,49.163216 329.008148,50.533367 
	C322.934662,52.015121 318.997375,55.930710 317.538544,62.009254 
	C316.192902,67.616142 319.516968,74.437325 325.000000,78.000015 
	C328.598755,80.338348 337.320770,80.163475 340.963776,77.451347 
	C342.353088,76.417046 343.333344,74.833344 344.500000,73.500008 
"/>
<path fill="none" opacity="1.000000" stroke="#000000" stroke-linecap="round" stroke-linejoin="round" stroke-width="3.000000"
	d="
M469.500000,53.500000 
	C466.818024,50.028652 462.692963,49.329105 460.016937,52.016865 
	C457.561279,54.483334 457.029327,58.218929 460.502960,60.996277 
	C462.820587,62.849304 465.156616,64.679626 467.502075,66.497314 
	C472.445984,70.328720 473.199982,75.394493 469.930420,79.950066 
	C467.277496,83.646454 460.666901,83.462173 456.514648,79.982536 
	C456.072662,79.612152 455.833344,79.000000 455.500000,78.500000 
"/>
<path fill="none" opacity="1.000000" stroke="#000000" stroke-linecap="round" stroke-linejoin="round" stroke-width="3.000000"
	d="
M177.500000,53.500000 
	C177.798569,50.790565 175.896332,50.591976 173.999390,50.515110 
	C171.641159,50.419544 169.377151,50.460083 167.963455,52.979496 
	C166.837509,54.986095 166.205215,57.355133 167.601990,58.908276 
	C170.426682,62.049168 173.924759,64.572090 176.977448,67.523331 
	C181.027756,71.439026 181.778900,76.430595 179.000000,79.500000 
	C175.625412,83.227364 170.012161,83.643158 165.500000,80.500000 
"/>
<path fill="none" opacity="1.000000" stroke="#000000" stroke-linecap="round" stroke-linejoin="round" stroke-width="3.000000"
	d="
M114.500000,41.500000 
	C109.333466,42.883453 107.356064,47.070126 105.466820,51.485802 
	C102.617287,58.145950 99.382027,64.631950 96.851051,71.444664 
	C96.336281,72.830292 96.204903,75.512627 93.500000,75.500000 
"/>
<path fill="none" opacity="1.000000" stroke="#000000" stroke-linecap="round" stroke-linejoin="round" stroke-width="4.000000"
	d="
M302.500000,51.000000 
	C304.603638,51.042023 304.524384,52.473400 304.516663,54.000084 
	C304.479553,61.333229 304.597748,68.668686 304.446075,75.998886 
	C304.394196,78.507431 304.772888,80.027153 307.463287,81.092705 
	C313.217133,83.371536 318.892609,85.939491 325.015991,86.897842 
	C328.384583,87.425041 332.025391,87.460236 334.968048,85.167290 
	C335.473114,82.517929 331.344971,83.103348 332.000000,80.500000 
"/>
<path fill="none" opacity="1.000000" stroke="#000000" stroke-linecap="round" stroke-linejoin="round" stroke-width="4.000000"
	d="
M68.500000,53.500000 
	C68.535500,52.104931 68.611778,50.748810 66.498047,50.982346 
	C64.174179,51.239105 61.771221,50.463757 59.750000,51.610909 
	C59.750000,60.500000 59.750000,69.500000 59.750000,78.558762 
	C63.801262,79.500549 68.173485,78.714760 72.498199,79.025085 
	C75.147148,79.215157 75.339149,76.863792 76.500000,75.500000 
"/>
<path fill="none" opacity="1.000000" stroke="#000000" stroke-linecap="round" stroke-linejoin="round" stroke-width="3.000000"
	d="
M39.500000,66.500000 
	C42.136990,64.116302 46.282139,63.113453 45.613464,57.985207 
	C45.023598,53.461403 43.523106,51.522251 39.007973,50.938351 
	C36.132034,50.566429 33.333332,52.285980 30.500000,51.000000 
"/>
<path fill="none" opacity="1.000000" stroke="#000000" stroke-linecap="round" stroke-linejoin="round" stroke-width="4.000000"
	d="
M140.500000,52.000000 
	C140.500000,60.000000 140.481094,68.000084 140.516602,75.999924 
	C140.523376,77.526550 140.603638,78.957977 138.500000,79.000000 
"/>
<path fill="none" opacity="1.000000" stroke="#000000" stroke-linecap="round" stroke-linejoin="round" stroke-width="3.000000"
	d="
M147.500000,66.500000 
	C150.136993,64.116302 154.282135,63.113457 153.613464,57.985207 
	C153.023605,53.461399 151.523102,51.522255 147.007980,50.938351 
	C144.132034,50.566433 141.333328,52.285980 138.500000,51.000000 
"/>
<path fill="none" opacity="1.000000" stroke="#000000" stroke-linecap="round" stroke-linejoin="round" stroke-width="4.000000"
	d="
M32.500000,52.000000 
	C32.500000,60.000000 32.481091,68.000084 32.516602,75.999924 
	C32.523376,77.526550 32.603630,78.957977 30.500000,79.000000 
"/>
<path fill="none" opacity="1.000000" stroke="#000000" stroke-linecap="round" stroke-linejoin="round" stroke-width="3.000000"
	d="
M36.500000,65.500000 
	C40.418560,66.402596 41.978142,70.072327 44.407433,72.589340 
	C48.178772,76.496880 51.768909,80.562355 55.995399,84.005646 
	C57.618839,85.328255 59.243092,86.598534 61.500000,86.500000 
"/>
<path fill="none" opacity="1.000000" stroke="#000000" stroke-linecap="round" stroke-linejoin="round" stroke-width="3.000000"
	d="
M144.500000,65.500000 
	C148.418564,66.402596 149.978149,70.072311 152.407440,72.589340 
	C156.178772,76.496872 159.768906,80.562363 163.995392,84.005661 
	C165.618835,85.328262 167.243088,86.598534 169.500000,86.500000 
"/>
<path fill="none" opacity="1.000000" stroke="#000000" stroke-linecap="round" stroke-linejoin="round" stroke-width="3.000000"
	d="
M303.500000,88.500000 
	C293.373474,84.909988 291.751556,75.320595 288.579559,66.969780 
	C286.744049,62.137505 285.710541,56.979618 282.963623,52.522411 
	C281.533081,50.201111 279.741699,48.086414 276.500000,48.500000 
"/>
<path fill="none" opacity="1.000000" stroke="#000000" stroke-linecap="round" stroke-linejoin="round" stroke-width="3.000000"
	d="
M357.500000,48.500000 
	C362.067993,48.280518 363.663727,51.600395 364.969879,55.011528 
	C367.571533,61.805939 369.999725,68.666771 372.500061,75.499969 
	C374.695221,81.499084 377.810547,86.649239 384.500000,88.500000 
"/>
<path fill="none" opacity="1.000000" stroke="#000000" stroke-linecap="round" stroke-linejoin="round" stroke-width="3.000000"
	d="
M80.500000,51.000000 
	C81.784706,51.715298 82.974426,51.729290 83.722923,53.923973 
	C86.123169,60.961853 89.319160,67.755974 92.620377,74.440552 
	C93.504532,76.230843 93.267776,77.813110 93.500000,79.500000 
"/>
<path fill="none" opacity="1.000000" stroke="#000000" stroke-linecap="round" stroke-linejoin="round" stroke-width="4.000000"
	d="
M131.500000,76.500000 
	C130.203430,79.595596 127.457886,79.047623 125.000885,78.971390 
	C121.833160,78.873116 118.619026,79.571846 115.500000,78.327904 
	C115.500000,69.666664 115.500000,60.833332 115.500000,52.000000 
"/>
<path fill="none" opacity="1.000000" stroke="#000000" stroke-linecap="round" stroke-linejoin="round" stroke-width="3.000000"
	d="
M282.000000,53.500000 
	C278.315857,61.124142 275.069214,68.944672 272.630859,77.039421 
	C272.007599,79.108475 270.449738,78.606346 269.500000,79.500000 
"/>
<path fill="none" opacity="1.000000" stroke="#000000" stroke-linecap="round" stroke-linejoin="round" stroke-width="3.000000"
	d="
M363.000000,53.500000 
	C358.698059,60.745537 356.778717,69.022705 353.069946,76.534538 
	C352.436279,77.818031 352.027771,78.861115 350.500000,79.000000 
"/>
<path fill="none" opacity="1.000000" stroke="#000000" stroke-linecap="round" stroke-linejoin="round" stroke-width="2.000000"
	d="
M288.000000,68.000000 
	C284.166656,68.735626 280.333344,68.899460 276.500000,68.000000 
"/>
<path fill="none" opacity="1.000000" stroke="#000000" stroke-linecap="round" stroke-linejoin="round" stroke-width="2.000000"
	d="
M357.500000,68.000000 
	C361.333344,68.899460 365.166656,68.735626 369.000000,68.000000 
"/>
<path fill="none" opacity="1.000000" stroke="#000000" stroke-linecap="round" stroke-linejoin="round" stroke-width="2.000000"
	d="
M60.500000,65.000000 
	C63.294098,65.833641 66.163666,65.380768 68.999733,65.506012 
	C70.446541,65.569916 71.242416,64.886353 71.500000,63.500000 
"/>
<path fill="none" opacity="1.000000" stroke="#000000" stroke-linecap="round" stroke-linejoin="round" stroke-width="2.000000"
	d="
M126.500000,63.500000 
	C126.084000,66.001335 124.141060,65.473976 122.499924,65.493614 
	C120.333572,65.519554 118.166664,65.500000 116.000000,65.500000 
"/>
<path fill="none" opacity="1.000000" stroke="#000000" stroke-linecap="round" stroke-linejoin="round" stroke-width="3.000000"
	d="
M123.500000,52.500000 
	C123.566643,50.500034 122.044830,51.230843 121.007080,50.971657 
	C118.485329,50.341846 116.000000,52.433987 113.500000,51.000000 
"/>
</svg>